Coordinates
version=1
nRows=19
nColumns=36
inDegrees=yes

Units are S.I. units (second, meters, Newtons, ...)
If the header above contains a line with 'inDegrees', this indicates whether rotational values are in degrees (yes) or radians (no).

endheader
time	pelvis_tilt	pelvis_list	pelvis_rotation	pelvis_tx	pelvis_ty	pelvis_tz	hip_flexion_r	hip_adduction_r	hip_rotation_r	knee_angle_r	knee_angle_r_beta	ankle_angle_r	subtalar_angle_r	mtp_angle_r	hip_flexion_l	hip_adduction_l	hip_rotation_l	knee_angle_l	knee_angle_l_beta	ankle_angle_l	subtalar_angle_l	mtp_angle_l	lumbar_extension	lumbar_bending	lumbar_rotation	arm_flex_r	arm_add_r	arm_rot_r	elbow_flex_r	pro_sup_r	arm_flex_l	arm_add_l	arm_rot_l	elbow_flex_l	pro_sup_l
      0.00000000	     -2.07826807	     -0.78019961	     -2.04270186	     -0.13764729	      0.95492763	     -0.57454581	      1.39118026	     -5.61746384	     -5.54215353	      3.26352946	      0.05695933	      5.77266047	      5.14222971	     -5.44748021	      0.59404603	     -7.61188192	    -10.85290986	      2.40837290	      0.04203404	      5.53895354	     11.73787729	     -5.44748021	     -5.41274082	      0.05471079	     -0.80589011	     -8.27726662	    -10.78880891	     -6.07929823	    111.85912096	     97.42884450	     -8.90035282	     -7.21159566	     -7.93459811	    113.16380161	     86.44171235
      0.01000000	     -2.13653618	     -0.76974783	     -1.97823198	     -0.13777768	      0.95484267	     -0.57458841	      1.48079904	     -5.63483109	     -5.73737859	      3.32491379	      0.05803069	      5.87740961	      5.29967338	     -5.67168743	      0.66540734	     -7.58936857	    -10.50935757	      2.38559985	      0.04163657	      5.47737658	     11.37390861	     -5.67168743	     -5.42607753	      0.05518989	     -0.87441847	     -8.30018766	    -10.81320375	     -5.99296825	    112.17191543	     95.88471576	     -8.92546387	     -7.23554603	     -7.84646858	    113.46392767	     85.37721018
      0.02000000	     -2.01920965	     -0.80046238	     -2.06793247	     -0.13775776	      0.95503232	     -0.57443503	      1.31991590	     -5.58174693	     -5.46558349	      3.22407380	      0.05627070	      5.62192631	      4.94088656	     -5.98367000	      0.58190788	     -7.66441071	    -11.19652965	      2.49964555	      0.04362704	      5.67895110	     12.22854259	     -5.98367000	     -5.56251139	      0.10094221	     -0.81264126	     -8.17827037	    -10.89636336	     -5.97014629	    111.98900737	     96.67395646	     -8.86457750	     -7.25808716	     -7.84155802	    113.20861793	     86.37048121
      0.03000000	     -2.08103470	     -0.78855939	     -2.02297610	     -0.13791617	      0.95498212	     -0.57450745	      1.40421437	     -5.60454243	     -5.53175788	      3.26078718	      0.05691147	      5.74811080	      5.10479546	     -6.54803096	      0.52855066	     -7.58101908	    -10.41087755	      2.21847323	      0.03871966	      5.19017960	     10.90695943	     -6.54803096	     -5.52669301	      0.10960016	     -0.80232104	     -8.21725036	    -10.97237524	     -5.72167149	    112.53225393	     89.77464439	     -8.78617495	     -7.23944611	     -7.67378064	    113.76598227	     81.56123610
      0.04000000	     -2.09358935	     -0.82339773	     -2.07472088	     -0.13801336	      0.95498361	     -0.57437518	      1.43386300	     -5.55004295	     -5.46508064	      3.23956241	      0.05654103	      5.57804649	      4.92161514	     -6.83086049	      0.66663919	     -7.69175760	    -11.06690515	      2.47804024	      0.04324996	      5.54016352	     11.94060435	     -6.83086049	     -5.57908649	      0.15721718	     -0.77112808	     -8.15117755	    -11.03305484	     -5.94295972	    111.85440938	     98.70708897	     -8.73620449	     -7.18921418	     -7.83707274	    113.03828096	     87.97295394
      0.05000000	     -2.12451398	     -0.82561690	     -2.08279442	     -0.13813854	      0.95496063	     -0.57433735	      1.48314254	     -5.54016419	     -5.46428129	      3.24488780	      0.05663398	      5.55019724	      4.86568532	     -6.86628172	      0.69081478	     -7.68860360	    -10.98221617	      2.44596016	      0.04269006	      5.45548991	     11.74522647	     -6.86628172	     -5.59789606	      0.18478309	     -0.77550444	     -8.10092133	    -11.11152215	     -5.85821992	    111.93284145	     98.18292014	     -8.70340261	     -7.16076282	     -7.80016360	    113.09018951	     87.47780825
      0.06000000	     -2.15473095	     -0.82528124	     -2.08649337	     -0.13825706	      0.95495060	     -0.57430111	      1.53929198	     -5.54266360	     -5.53258411	      3.26893523	      0.05705368	      5.58550608	      5.05621208	     -7.10678281	      0.70973901	     -7.68581384	    -10.91778059	      2.40186186	      0.04192040	      5.39529312	     11.63727239	     -7.10678281	     -5.61700599	      0.20760264	     -0.82761256	     -8.00041122	    -11.17590987	     -5.80656084	    111.90538708	     98.65739935	     -8.69877724	     -7.15282380	     -7.77431356	    113.07676706	     87.73036123
      0.07000000	     -2.17856928	     -0.84990558	     -2.11203834	     -0.13840603	      0.95496165	     -0.57418151	      1.54933726	     -5.49650526	     -5.42489920	      3.19968090	      0.05584497	      5.43975104	      4.86774834	     -7.17410216	      0.75700884	     -7.73012284	    -11.05546766	      2.43730369	      0.04253897	      5.44560948	     11.86658036	     -7.17410216	     -5.65007144	      0.24128188	     -0.77359694	     -7.99085641	    -11.26692444	     -5.67303870	    112.15406835	     95.88512901	     -8.64681211	     -7.17382831	     -7.61133409	    113.34520801	     85.81598997
      0.08000000	     -2.36777135	     -0.85182453	     -2.11838199	     -0.13867251	      0.95473298	     -0.57405092	      1.79639197	     -5.48060749	     -5.35316080	      3.26264046	      0.05694382	      5.55992623	      4.95468012	     -7.19084149	      0.98946639	     -7.74957401	    -10.97843264	      2.44399706	      0.04265580	      5.47228085	     11.79867151	     -7.19084149	     -5.51089262	      0.25985632	     -0.76173218	     -8.00817715	    -11.31783664	     -5.59355970	    112.32449293	     95.15825192	     -8.63506221	     -7.17077898	     -7.55214402	    113.55937152	     85.29510939
      0.09000000	     -2.28069515	     -0.90420949	     -2.15175057	     -0.13888213	      0.95491899	     -0.57385420	      1.64804870	     -5.38790255	     -5.15426878	      3.09734069	      0.05405879	      5.22930866	      4.52362133	     -7.25425455	      0.93289641	     -7.83386692	    -11.27269506	      2.51443095	      0.04388510	      5.49289099	     12.16744145	     -7.25425455	     -5.68029888	      0.32824833	     -0.74813538	     -7.84734281	    -11.37481383	     -5.61940651	    112.07689291	     97.34270265	     -8.51057803	     -7.19487891	     -7.56917903	    113.31372564	     86.70530429
      0.10000000	     -2.36084526	     -0.91100900	     -2.17030799	     -0.13905829	      0.95483881	     -0.57372996	      1.74887172	     -5.36868678	     -5.15801975	      3.09056328	      0.05394051	      5.22177617	      4.50871753	     -7.26619421	      1.00390081	     -7.84526845	    -11.15658739	      2.46573558	      0.04303520	      5.40587979	     11.94211341	     -7.26619421	     -5.66831663	      0.36634331	     -0.71322049	     -7.81891310	    -11.48060474	     -5.56491500	    112.17592152	     96.91495433	     -8.45896032	     -7.19533956	     -7.49489990	    113.41117419	     86.20933971
      0.11000000	     -2.37715577	     -0.90113565	     -2.17014126	     -0.13923734	      0.95485298	     -0.57362979	      1.78000871	     -5.37772530	     -5.26165323	      3.09399864	      0.05400046	      5.29930396	      4.70708490	     -7.27915907	      1.03892559	     -7.84564666	    -11.21567715	      2.47139332	      0.04313395	      5.40224317	     11.93328243	     -7.27915907	     -5.71748669	      0.37559957	     -0.71836241	     -7.74959306	    -11.55085090	     -5.50749516	    112.23511760	     96.29557356	     -8.38542653	     -7.19753118	     -7.43416186	    113.46205106	     85.77155614
      0.12000000	     -2.40129759	     -0.89968716	     -2.18676783	     -0.13950258	      0.95487307	     -0.57349686	      1.82670207	     -5.37166010	     -5.33290490	      3.09066031	      0.05394220	      5.33531740	      4.81678704	     -7.29513330	      1.07769847	     -7.85948304	    -11.26032861	      2.46519666	      0.04302580	      5.36357653	     11.91882632	     -7.29513330	     -5.76469542	      0.38652497	     -0.71588494	     -7.62293277	    -11.58361476	     -5.40659905	    112.24768495	     95.52458678	     -8.27269090	     -7.17527546	     -7.37102453	    113.51583889	     85.19960899
      0.13000000	     -2.48599828	     -0.88634053	     -2.22054423	     -0.13981491	      0.95478697	     -0.57336648	      1.94688966	     -5.37228051	     -5.28478479	      3.08978465	      0.05392692	      5.32811592	      4.85398918	     -7.30656286	      1.18831333	     -7.85136449	    -11.22328940	      2.47848451	      0.04325772	      5.33980670	     11.93904532	     -7.30656286	     -5.78248704	      0.39666351	     -0.70308355	     -7.53041606	    -11.70465445	     -5.34858836	    112.35626833	     95.08064409	     -8.26015270	     -7.21487051	     -7.35877429	    113.67182985	     84.86123214
      0.14000000	     -2.61241358	     -0.87408286	     -2.23102722	     -0.14011501	      0.95468259	     -0.57321052	      2.11568396	     -5.36935884	     -5.28807760	      3.11360784	      0.05434271	      5.35210908	      4.90162141	     -7.31989173	      1.34974503	     -7.85420059	    -11.17510879	      2.48658682	      0.04339913	      5.31885072	     11.90826723	     -7.31989173	     -5.73518515	      0.41620878	     -0.70702351	     -7.43693835	    -11.73500060	     -5.27880798	    112.45190807	     94.34008445	     -8.21510185	     -7.22158655	     -7.32038128	    113.78089233	     84.32977318
      0.15000000	     -2.65313855	     -0.88770172	     -2.22345770	     -0.14040979	      0.95468434	     -0.57303790	      2.16424693	     -5.33406401	     -5.34006420	      3.08629488	      0.05386601	      5.29820488	      4.89508167	     -7.32935519	      1.43200263	     -7.88912551	    -11.22635478	      2.51085336	      0.04382266	      5.26824804	     11.93858289	     -7.32935519	     -5.78406226	      0.44822898	     -0.72956848	     -7.30635898	    -11.79064047	     -5.25291670	    112.48138275	     94.06206609	     -8.14333053	     -7.21568497	     -7.29647068	    113.78020793	     84.12746858
      0.16000000	     -2.77675516	     -0.91365198	     -2.24371259	     -0.14072065	      0.95459422	     -0.57280583	      2.30626850	     -5.28149395	     -5.28758428	      3.05212016	      0.05326955	      5.29773572	      4.96152457	     -7.34665130	      1.57650069	     -7.93932317	    -11.18212409	      2.49363662	      0.04352217	      5.20544653	     11.92152724	     -7.34665130	     -5.75791167	      0.50230034	     -0.70727760	     -7.23577007	    -11.86872230	     -5.18785176	    112.63812541	     92.89129187	     -8.07957214	     -7.21669768	     -7.27059117	    113.87463248	     83.27691263
      0.17000000	     -2.90192649	     -0.97399427	     -2.28829784	     -0.14105201	      0.95449722	     -0.57251039	      2.44204897	     -5.17423974	     -5.08991593	      2.98080817	      0.05202492	      5.05289524	      4.57663088	     -7.39424746	      1.75871446	     -8.04370135	    -11.38110295	      2.55543164	      0.04460070	      5.24493510	     12.11482559	     -7.39424746	     -5.71859042	      0.59510489	     -0.67486755	     -7.11756432	    -11.92436214	     -5.35835587	    112.14578006	     98.80608775	     -8.00460512	     -7.18742594	     -7.32560153	    113.31814340	     87.56488160
      0.18000000	     -2.93378827	     -0.93810217	     -2.28954143	     -0.14144131	      0.95451266	     -0.57236623	      2.53075254	     -5.21451249	     -5.19954467	      3.01191398	      0.05256782	      5.06029544	      4.74875882	     -7.40723553	      1.77901694	     -7.99875701	    -11.27990341	      2.47449175	      0.04318803	      5.12753927	     11.91641418	     -7.40723553	     -5.81221761	      0.58557979	     -0.65879850	     -7.00232765	    -12.06639119	     -5.17073566	    112.35938023	     96.86151105	     -7.86674766	     -7.20392151	     -7.22784992	    113.46341424	     86.29327996
